<svg xmlns="http://www.w3.org/2000/svg" width="1280" height="640"><defs><linearGradient x1="537.43" y1="435.59" x2="448" y2="420" id="a" gradientUnits="userSpaceOnUse" gradientTransform="matrix(1.29286 0 0 .84963 -18.21 39.98)"><stop offset="0%" stop-color="#316E7D"/><stop offset="100%" stop-color="#141E24"/></linearGradient><linearGradient x1="146" y1="249.98" x2="144.96" y2="334.58" id="b" gradientUnits="userSpaceOnUse"><stop offset="0%" stop-color="#141E24"/><stop offset="100%" stop-color="#E96C4C"/></linearGradient><linearGradient x1="272.9" y1="255.14" x2="273.93" y2="334.58" id="c" gradientUnits="userSpaceOnUse"><stop offset="0%" stop-color="#141E24"/><stop offset="100%" stop-color="#E96C4C"/></linearGradient></defs><path d="M548.06 350.1h576.2v146.04h-576.2z" fill="url(#a)" style="fill:url(#a);stroke-width:1.04807"/><g fill="#e96c4c"><path d="M590.74 226.03v95.18h62.46v-22.3h-37.18v-14.14h33.47v-22.3h-33.47v-14.13h34.94v-22.31zm359.17 0v95.18h26.77l.02-28.26h11.13l14.13 28.26h29.32l-18.91-34.2a37.77 37.77 0 0 0 8.92-11.16c4-7.45 5.9-15.71 4.76-23.8-.81-5.8-3.08-11.28-6.99-15.61-6.2-6.87-15.98-10.41-26.77-10.41zm26.77 20.07h12.64c3.9 0 7.35 1.66 9.66 4.47a13.66 13.66 0 0 1 2.98 9.66 14.04 14.04 0 0 1-6.7 11.16c-2.72 1.63-6.05 2.23-9.66 2.23h-8.93zm-477.4-20.07v95.18h26.77l.02-28.26h11.13l14.13 28.26h29.32L561.74 287a37.77 37.77 0 0 0 8.92-11.16c4-7.45 5.9-15.71 4.76-23.8-.81-5.8-3.08-11.28-6.99-15.61-6.2-6.87-15.98-10.41-26.77-10.41zm26.77 20.07h12.64c3.9 0 7.35 1.66 9.67 4.47a13.66 13.66 0 0 1 2.97 9.66 14.04 14.04 0 0 1-6.7 11.16c-2.72 1.63-6.05 2.23-9.66 2.23h-8.93zm164.33-20.07-31.23 95.18h29l4.47-14.87h35.69l4.46 14.87h28.26l-31.98-95.18zm18.6 20.82h2.23L722.36 287h-23.8zm61.71-20.82v95.18h39.57c14.23 0 26.95-5.24 35.54-14.87 7.95-8.91 11.82-20.99 11.9-33.47.08-12.64-3.7-24.88-11.9-33.46-8.69-9.1-21.72-13.38-36.29-13.38zm26.77 22.3h11.9c12.81 0 21.21 10.95 21.57 24.54.37 14.37-8.25 26.03-21.57 26.03h-11.9zm74.37-22.3v95.18h62.46v-22.3H897.1v-14.14h33.46v-22.3h-33.46v-14.13h34.94v-22.31zM499.28 105.9v95.17h39.56c14.23 0 26.95-5.24 35.54-14.87 7.95-8.9 11.82-20.98 11.9-33.46.08-12.64-3.7-24.89-11.9-33.46-8.69-9.1-21.72-13.39-36.28-13.39zm26.77 22.3h11.9c12.8 0 21.2 10.94 21.56 24.54.37 14.37-8.25 26.03-21.57 26.03h-11.9zm91.46-22.3-31.23 95.17h29l4.46-14.87h35.7l4.46 14.87h28.25l-31.97-95.18zm18.6 20.81h2.22l11.16 40.16h-23.8zm60.22-20.82v95.18h26.77l.03-28.25h11.13l14.13 28.25h29.32l-18.91-34.2a37.77 37.77 0 0 0 8.92-11.16c4-7.44 5.9-15.7 4.76-23.8-.81-5.8-3.08-11.28-6.99-15.6-6.2-6.87-15.98-10.42-26.77-10.42zm26.77 20.08h12.65c3.9 0 7.35 1.66 9.66 4.46a13.66 13.66 0 0 1 2.98 9.67 14.04 14.04 0 0 1-6.7 11.15c-2.73 1.64-6.05 2.23-9.66 2.23h-8.93zm65.44-20.08v95.18h24.9v-37.92h9.67l22.3 37.92h29.73l-31.21-49.82 28.22-45.36h-27.48l-23.05 36.44h-8.18v-36.44z"/></g><path d="M328.15 360.43c51.09-2.04 99.78 8.33 125.27 40.72 22.65 28.77 24.98 69.68 6.07 102.03-19.23 32.88-58.47 51.22-105.51 51.22H210.53c-15.26 0-24.2-17.63-30.16-38.56-8.88-31.22-9.35-63.8 5.42-90 23.37-41.45 79.98-62.91 142.36-65.4z" fill="#141e24"/><path d="M257.08 425.37c4.27 10.1 3.76 22.83.84 35.22a84.35 84.35 0 0 1-9.1 23.23A70.59 70.59 0 0 1 234.69 501c4.3-2.8 9.1-4.38 14.15-5.06 8.08-1.08 16.79.28 25.25 3.03l8.15 35.05a370.1 370.1 0 0 1-32.32 12.13c-17.53 5.6-34.91 10.3-51.05 7.19-21.35-4.13-38.43-19.99-44.96-41.3-4.86-15.89-2.91-33.65 3.1-50.56 3.6-10.15 8.7-19.67 15.47-27.85 11.17-13.51 26.5-22.71 43.34-25.8 10.42-1.9 21.03-1.33 29.14 3.4 5.46 3.18 9.57 8.11 12.13 14.14z" fill="#141e24"/><path d="M200.33 421.25a140.77 140.77 0 0 0-20.14 28.88c-7.43 14.16-12.65 29.17-12.38 44.37.22 12.73 4.3 25.22 10.2 37.04a73.6 73.6 0 0 0 4.78 8.35c-3.62-1.28-6.67-3.43-9.55-5.97-9.08-8-15.37-20.34-16.78-33.23a70.21 70.21 0 0 1 1.03-20.64c2.49-13.15 7.57-25.54 15.48-36.1a76.53 76.53 0 0 1 27.36-22.7z" fill="#316e7d"/><path d="M305.47 519.88c2.85 2.33 3.02 7.82 5.98 10.1 2.7 2.1 6.92 1.64 10.18-1 2.2-1.8 3.6-4.51 4.1-7.52.27-1.69.26-3.42-.2-5.11a17.41 17.41 0 0 1 3.55 5.24c1.27 2.8 1.78 5.87 3.66 7.38 1.52 1.22 3.76 1.43 5.98 1.02a9.55 9.55 0 0 0 5.9-3.34c2.28-2.92 2.54-7.37 1.2-11.94a55.9 55.9 0 0 1 7.16 8.36c1.27 1.87 2.29 3.8 3.93 4.9 3.14 2.1 7.64 1.3 10.07-2.01 2.06-2.8 2.15-6.88 1.02-11.23-2.31-8.9-9.42-17.52-18.6-22.71-11.05-6.24-24.28-7.9-37.96-7.5-6.92.2-13.77.91-20.2 3.03a47.55 47.55 0 0 0-23.05 16.41c-4.8 6.34-7.88 13.39-5.97 19.1 2.15 6.42 9.2 9.86 16.72 7.17 10.54-9.84 21.62-14.36 26.53-10.35z" fill="#8bbcc7"/><path d="M293.27 499.18c4.28 1.79 7.22 6.03 9.55 10.75a43.25 43.25 0 0 1 3.66 10.36 58.35 58.35 0 0 0-9.1 5.05c-2.4 1.62-4.65 3.45-7.06 5.05-5.19 3.43-10.85 5.8-16.17 5.1a15.4 15.4 0 0 1-10.1-6.06c-2.34-3.07-3.55-6.87-3.03-10.56.66-4.75 4.15-8.97 8.37-12.52 7.83-6.59 17.01-10.03 23.88-7.17z" fill="#316e7d"/><path d="m173.5 411.96 46.43-116.59a413.9 413.9 0 0 1 5.16-37.14c3.14-16.55 7.02-32.83 14.45-47.46 8.34-16.44 20.69-30.54 36.1-40.23 15.87-9.98 34.52-15 53.66-16.51 25.62-2.03 51.03 2.21 71.19 15.47 16.28 10.72 28.5 26.9 36.1 45.4 9.4 22.82 11.3 48.37 7.23 74.28l35.08 113.5L456.17 422l-42.43-5.25c-8.65 13.31-18.78 19.97-31.32 19.97h-74.76c-13.85 0-25.72-6.3-36.37-18.92l-58.59 6.3z" fill="#141e24"/><path d="M280.96 173.34a153.2 153.2 0 0 0-19.2 41c-4.99 16.6-7.1 34-8.08 51.5-.7 12.26-.69 24.53 0 36.8L196.54 415.7l-16.17-6.31 45.02-112a280.6 280.6 0 0 1 5.06-38.9c4.05-19.94 9.6-39.45 20.2-55.72 7.75-11.9 17.87-22.05 30.3-29.43zM359.75 161.77a68.88 68.88 0 0 0-52.53 21.03c-27.61 28.37-35.3 81.7-27.27 139.81l36.36-4.2c8.51-16.9 22.5-27.39 39.84-27.81 16.84-.41 30.96 8.83 39.97 24.65l46.17-15.68-2.73-19a125.08 125.08 0 0 0-2.02-44.16c-4.1-18.08-11.58-35.08-23.64-48.33-14.24-15.65-33.68-25.57-54.15-26.3zM371.6 381l-1.08 31.97c-.1 3.07-2.8 5.06-6.17 5.26-3.45.2-6.26-1.47-6.16-4.2l1.08-31.97a6.36 6.36 0 0 1 6.16-6.3c3.45-.2 6.28 1.95 6.17 5.25zM342.83 381l-1.08 31.97c-.1 3.07-2.8 5.06-6.17 5.26-3.46.2-6.26-1.47-6.16-4.2l1.08-31.97a6.36 6.36 0 0 1 6.16-6.3c3.45-.2 6.28 1.95 6.17 5.25zM316.11 395.53l-.7 12.85c-.18 3.4-3.03 5.6-6.54 5.64-3.3.03-5.93-1.8-5.78-4.6l.7-12.83a6.46 6.46 0 0 1 6.16-6.31c3.5-.23 6.34 1.96 6.16 5.25zM398.31 393.43l-.7 12.84c-.18 3.41-3.03 5.61-6.54 5.64-3.3.03-5.93-1.78-5.78-4.58l.7-12.85a6.46 6.46 0 0 1 6.16-6.3c3.5-.23 6.34 1.96 6.16 5.25z" fill="#316e7d"/><path d="M339.62 274.41a30.86 30.86 0 0 1 13.06-3.73c6.75-.45 13.74 1.04 20.47 3.72 13.01-17.46 33.05-24.13 52.54-21.22 29.47 4.4 50.86 27.62 52.18 55.6 1.39 29.7-19.66 55.63-50.56 60.88-20.17 3.43-41.31-3.67-54.68-19.6-10.34-12.33-14.86-28.83-10.5-45.82a5.94 5.94 0 0 0-3.86-1.85 8.21 8.21 0 0 0-5.6 1.87c3.15 20.66-4.42 39.51-18.64 52.23a62.11 62.11 0 0 1-65.29 11.19c-19.6-8.1-33.98-25.72-37.3-46.63-3.13-19.68 4.04-39.9 18.65-54.1 14.43-14.02 34.57-20.48 54.1-16.78 14.33 2.71 27.24 10.89 35.43 24.24z" fill="#e96c4c" opacity=".2"/><path d="M337.76 280.01a32.7 32.7 0 0 1 16.78-5.6c7.05-.35 14.1 1.49 20.63 5.04 12.95-18.23 33.48-25.28 53.17-21.22 24.66 5.09 42.57 25.43 44.37 49.53 2.15 28.81-17.81 53.78-47.46 57.77-17.38 2.34-35.52-4.04-47.46-17.54-11.15-12.6-15.57-30.04-10.61-47.8a14.6 14.6 0 0 0-8.9-3.4c-3.92-.13-7.77 1.25-11.2 3.74 4.1 20.43-2.7 39.52-16.79 52.23-15.79 14.24-38.04 18.64-57.82 11.19a56.13 56.13 0 0 1-35.44-42.9c-3.15-18.36 3.2-37.3 16.79-50.37a56.14 56.14 0 0 1 48.5-14.92 51.34 51.34 0 0 1 35.44 24.25z" fill="#e96c4c" opacity=".2"/><path d="M422.79 263c25.68 1.93 45.76 24.05 44.72 50.55-.96 24.61-20.3 44.73-44.72 46.67a48.72 48.72 0 0 1-52.5-44.73c-2.41-30.34 22.18-54.96 52.5-52.5zM292.4 260.25a50.16 50.16 0 0 1 50.36 52.23 50.39 50.39 0 0 1-50.36 48.5 50.39 50.39 0 0 1-50.37-48.5 50.16 50.16 0 0 1 50.37-52.23z" fill="#fff"/><path d="M356 285.55c9.17-.2 18.1 2.67 25.99 8.2l-3.73 11.19c-5.92-5.12-12.97-7.97-20.4-8.2-7.6-.23-14.98 2.3-21.37 7.19l-5.6-9.33c7.48-5.73 16.12-8.86 25.11-9.05z" fill="#fff"/><path d="M146.24 271.44c21.45 0 39.14 15.61 41.03 35.44 2.38 24.94-18.76 45.21-44.76 42.9-22.35-1.98-39.39-20.98-37.3-42.9 1.89-20 19.65-35.47 41.03-35.44z" fill="url(#b)" style="fill:url(#b)" transform="translate(146.16)"/><path d="M276.63 274.66c20.33 1.86 36.05 18.86 35 38.89-.96 18.3-16.09 33.19-35 35-22.64 2.17-41.68-14-42.78-35-1.2-22.93 18.67-41.28 42.78-38.9z" fill="url(#c)" style="fill:url(#c)" transform="translate(146.16)"/><path d="M310.58 292.6c7.84-.27 15.19 3.03 20.79 9.32l-12.38-2.84c-.05 9.94-5.07 17.22-11.6 16.85-5.85-.33-10-6.71-9.4-15.12l-9.52 4.07c5.76-7.48 13.5-12 22.11-12.29zM399.69 291.43c7.64-.07 14.67 3.43 19.77 9.89l-11.44-3.9c.56 9.3-3.82 16.38-10.06 16.4-5.72 0-10.05-6-9.84-14.18l-10.67 4.15c5.78-7.67 13.57-12.28 22.24-12.36z" fill="#141e24" opacity=".1"/><path d="m261.03 335.59 13.13-34.63c1.4-3.66 3.92-5.97 7.17-5.97h47.76a39.66 39.66 0 0 0-27.46-21.5c-15.94-3.5-32.01 1.79-41.8 14.34a38.15 38.15 0 0 0-7.95 25.84 36.1 36.1 0 0 0 9.15 21.92zM389.6 335.71l12.69-31.25c1.54-3.81 4.14-6.23 7.46-6.22l44.57.13c-4.68-12.08-14.53-19.79-26.14-22.41-17.79-4.02-35.13 3.42-43.57 18.67-7.15 12.93-5.74 28.64 4.98 41.08z" fill="#141e24" opacity=".5"/><path d="m346.05 535.03 61.62-148.5c11.81-28.45 37.54-44.45 69.71-44.45h165.91c15.54 0 21.37 19.24 13.14 39.4l-58.6 143.45c-2.58 6.33-7.79 10.1-14.31 10.1z" fill="#8bbcc7" opacity=".2"/><path d="m358 535.03 61.62-148.5c10.02-24.15 30.26-38.39 55.57-38.39h165.9c15.25 0 22.3 16.3 15.34 33.34l-58.6 143.45c-2.58 6.33-7.79 10.1-14.31 10.1z" fill="#8bbcc7" opacity=".4"/><path d="m370.12 535.03 61.63-148.5c7.64-18.43 23.1-29.3 42.43-29.3h165.9c13.5 0 21.44 11.77 16.35 24.25l-58.6 143.45c-2.58 6.33-7.79 10.1-14.31 10.1z" fill="#fff"/><path d="M435.52 405.17c10.13-23.7 23.21-40.36 41.42-40.4l165.17-.46c12.3-.04 19.21 11.3 14.32 23.23l-62.64 152.54c-5.73 13.96-20.96 20.17-40.58 20.2l-252.05.47c-8.03.01-13.45-5.82-14.14-13.14-.9-9.4 5.93-17.17 16.16-17.17h78.8z" fill="#141e24"/><path d="M542.66 454.71c4.3 6.78 11.83 8.27 19.9 5.32a21.78 21.78 0 0 1-2.76 6.26c-6.47 10.57-16.11 17.95-27.12 19.26-6.72.8-13.26-.56-16.97-4.84-5.4-6.23-4.06-17.1 1.22-27.23 4.84-9.28 13.37-16.65 22-19.4 2.7-.86 5.34-1.26 8.1-.89-6.64 6.46-8.9 14.37-4.37 21.52z" fill="#316e7d"/><path d="M538.48 457.41c3.4 5.58 9.45 7.98 16.47 7.14-5.66 9-13.3 15.42-21.79 16.81-5.92.98-11.68-.46-14.67-4.35-4.08-5.29-2.26-14.06 2.53-22.15a40.1 40.1 0 0 1 18.97-16.45c-4.25 6.26-5.1 13.13-1.51 19z" fill="#8bbcc7"/><text xml:space="preserve" style="font-style:normal;font-weight:400;font-size:80px;line-height:1;font-family:sans-serif;fill:#fff;fill-opacity:1;stroke:none" x="691.28" y="411.3"><tspan x="691.28" y="411.3" style="font-style:normal;font-variant:normal;font-weight:800;font-stretch:normal;font-size:80px;font-family:'Open Sans';-inkscape-font-specification:'Open Sans Ultra-Bold';fill:#fff;fill-opacity:1">WEB </tspan><tspan x="691.28" y="491.4" style="font-style:normal;font-variant:normal;font-weight:800;font-stretch:normal;font-size:80px;font-family:'Open Sans';-inkscape-font-specification:'Open Sans Ultra-Bold';fill:#fff;fill-opacity:1">WRAPPER</tspan></text></svg>