<?xml version="1.0" encoding="UTF-8" standalone="no"?>
<svg
   xmlns:dc="http://purl.org/dc/elements/1.1/"
   xmlns:cc="http://creativecommons.org/ns#"
   xmlns:rdf="http://www.w3.org/1999/02/22-rdf-syntax-ns#"
   xmlns:svg="http://www.w3.org/2000/svg"
   xmlns="http://www.w3.org/2000/svg"
   xmlns:sodipodi="http://sodipodi.sourceforge.net/DTD/sodipodi-0.dtd"
   xmlns:inkscape="http://www.inkscape.org/namespaces/inkscape"
   viewBox="0 0 1280 640"
   version="1.1"
   id="svg1708"
   sodipodi:docname="darkreader-web-banner-1280x640.svg"
   width="1280"
   height="640"
   inkscape:export-xdpi="96"
   inkscape:export-ydpi="96"
   inkscape:version="1.0.2 (e86c870879, 2021-01-15)">
  <metadata
     id="metadata1712">
    <rdf:RDF>
      <cc:Work
         rdf:about="">
        <dc:format>image/svg+xml</dc:format>
        <dc:type
           rdf:resource="http://purl.org/dc/dcmitype/StillImage" />
        <dc:title></dc:title>
      </cc:Work>
    </rdf:RDF>
  </metadata>
  <sodipodi:namedview
     pagecolor="#ffffff"
     bordercolor="#666666"
     borderopacity="1"
     objecttolerance="10"
     gridtolerance="10"
     guidetolerance="10"
     inkscape:pageopacity="0"
     inkscape:pageshadow="2"
     inkscape:window-width="1920"
     inkscape:window-height="1016"
     id="namedview1710"
     showgrid="false"
     inkscape:zoom="0.89636183"
     inkscape:cx="602.48568"
     inkscape:cy="304.11054"
     inkscape:window-x="0"
     inkscape:window-y="27"
     inkscape:window-maximized="1"
     inkscape:current-layer="svg1708" />
  <defs
     id="defs1626">
    <linearGradient
       x1="537.42902"
       y1="435.591"
       x2="448"
       y2="420"
       id="gradient48"
       gradientUnits="userSpaceOnUse"
       gradientTransform="matrix(1.2928579,0,0,0.84963247,-18.210662,39.981504)">
      <stop
         offset="0%"
         stop-color="rgb(49,110,125)"
         id="stop1611" />
      <stop
         offset="100%"
         stop-color="rgb(20,30,36)"
         id="stop1613" />
    </linearGradient>
    <linearGradient
       x1="145.99541"
       y1="249.9787"
       x2="144.96359"
       y2="334.58029"
       id="gradient70"
       gradientUnits="userSpaceOnUse">
      <stop
         offset="0%"
         stop-color="rgb(20,30,36)"
         id="stop1616" />
      <stop
         offset="100%"
         stop-color="rgb(233,108,76)"
         id="stop1618" />
    </linearGradient>
    <linearGradient
       x1="272.89771"
       y1="255.1373"
       x2="273.92941"
       y2="334.58029"
       id="gradient71"
       gradientUnits="userSpaceOnUse">
      <stop
         offset="0%"
         stop-color="rgb(20,30,36)"
         id="stop1621" />
      <stop
         offset="100%"
         stop-color="rgb(233,108,76)"
         id="stop1623" />
    </linearGradient>
  </defs>
  <path
     d="M 1.0955977,0.42032755 H 1279.7321 V 639.34394 H 1.0955977 Z"
     fill="#141e24"
     opacity="1"
     id="path1628"
     style="stroke-width:1.04807" />
  <path
     d="m 548.0611,350.09736 h 576.191 v 146.04137 h -576.191 z"
     fill="url(#gradient48)"
     opacity="1"
     id="path1630"
     style="fill:url(#gradient48);stroke-width:1.04807" />
  <g
     id="g1638"
     transform="translate(145.27673,1.8913942)">
    <path
       d="m 445.4642,224.1355 v 95.1823 h 62.4634 V 297.0095 H 470.747 v -14.1287 h 33.4625 V 260.5725 H 470.747 v -14.1286 h 34.941 v -22.3084 z m 359.1643,0 v 95.1823 h 26.77 l 0.0233,-28.2572 h 11.1309 l 14.1286,28.2572 H 886 l -18.9081,-34.2061 c 3.7278,-3.132 6.6637,-6.9489 8.9233,-11.1542 4.0018,-7.4476 5.8911,-15.7084 4.7591,-23.7956 -0.8133,-5.8109 -3.0827,-11.2881 -6.9899,-15.6158 -6.199,-6.866 -15.9802,-10.4106 -26.77,-10.4106 z m 26.77,20.0775 h 12.6414 c 3.8984,0 7.3501,1.6603 9.667,4.4617 2.2043,2.6653 3.2215,6.1685 2.9744,9.667 -0.3277,4.6384 -2.7722,8.8078 -6.6925,11.1541 -2.7294,1.6335 -6.0583,2.2309 -9.667,2.2309 h -8.9262 z M 354,224.1355 v 95.1823 h 26.77 l 0.0233,-28.2572 h 11.1309 l 14.1286,28.2572 h 29.3187 l -18.9081,-34.2061 c 3.7278,-3.132 6.6637,-6.9489 8.9233,-11.1542 4.0018,-7.4476 5.8911,-15.7084 4.7591,-23.7956 -0.8133,-5.8109 -3.0827,-11.2881 -6.9899,-15.6158 -6.199,-6.866 -15.9802,-10.4106 -26.7701,-10.4106 z m 26.77,20.0775 h 12.6414 c 3.8984,0 7.3501,1.6603 9.667,4.4617 2.2043,2.6653 3.2215,6.1685 2.9744,9.667 -0.3277,4.6384 -2.7722,8.8078 -6.6925,11.1541 -2.7294,1.6335 -6.0583,2.2309 -9.667,2.2309 h -8.9262 z m 164.3381,-20.0775 -31.2317,95.1823 h 29.0009 l 4.4617,-14.8722 h 35.6933 l 4.4617,14.8722 h 28.2572 l -31.9753,-95.1823 z m 18.5903,20.8212 h 2.2308 l 11.1542,40.155 h -23.7955 z m 61.7198,-20.8212 v 95.1823 h 39.5659 c 14.2315,0 26.9457,-5.2413 35.5388,-14.8722 7.9483,-8.9082 11.8191,-20.9843 11.8978,-33.4625 0.0797,-12.6425 -3.7062,-24.8852 -11.8978,-33.4626 -8.6874,-9.0965 -21.717,-13.385 -36.2853,-13.385 z m 26.77,22.3084 h 11.8977 c 12.8113,0 21.212,10.9406 21.5648,24.5392 0.3727,14.3664 -8.2449,26.0264 -21.5648,26.0264 h -11.8977 z m 74.3611,-22.3084 v 95.1823 h 62.4634 v -22.3083 h -37.1806 v -14.1287 h 33.4625 v -22.3083 h -33.4625 v -14.1286 h 34.941 v -22.3084 z"
       fill="#e96c4c"
       opacity="1"
       id="path1634" />
    <path
       d="m 354,104 v 95.1823 h 39.566 c 14.2315,0 26.9456,-5.2414 35.5388,-14.8723 7.9482,-8.9081 11.819,-20.9843 11.8977,-33.4625 0.0798,-12.6424 -3.7062,-24.8852 -11.8977,-33.4625 C 420.4173,108.2884 407.3878,104 392.8194,104 Z m 26.77,22.3083 h 11.8978 c 12.8112,0 21.212,10.9406 21.5647,24.5392 0.3727,14.3664 -8.2449,26.0264 -21.5647,26.0264 H 380.77 Z M 472.2342,104 441.0025,199.1823 h 29.0009 L 474.465,184.31 h 35.6934 l 4.4617,14.8723 h 28.2572 L 510.902,104 Z m 18.5903,20.8211 h 2.2308 l 11.1542,40.155 H 480.4139 Z M 551.057,104 v 95.1823 h 26.77 l 0.0234,-28.2573 h 11.1308 l 14.1286,28.2573 h 29.3187 l -18.9081,-34.2062 c 3.7278,-3.1319 6.6637,-6.9489 8.9233,-11.1541 4.0019,-7.4477 5.8911,-15.7084 4.7591,-23.7956 -0.8133,-5.8109 -3.0827,-11.2882 -6.9899,-15.6158 C 614.0139,107.5446 604.2327,104 593.4429,104 Z m 26.77,20.0775 h 12.6414 c 3.8984,0 7.3501,1.6603 9.667,4.4617 2.2043,2.6653 3.2215,6.1685 2.9744,9.6669 -0.3276,4.6384 -2.7722,8.8079 -6.6925,11.1542 -2.7294,1.6335 -6.0582,2.2308 -9.6669,2.2308 h -8.9263 z M 643.2648,104 v 95.1823 h 24.8979 v -37.9242 h 9.6669 l 22.3084,37.9242 h 29.724 L 698.6508,149.3603 726.8759,104 h -27.4815 l -23.052,36.437 h -8.1797 V 104 Z"
       fill="#e96c4c"
       opacity="1"
       id="path1636" />
  </g>
  <g
     id="g1698"
     transform="translate(146.15921)">
    <path
       d="m 181.9884,360.4345 c 51.092,-2.0402 99.7813,8.3257 125.2768,40.7124 22.6501,28.7725 24.9741,69.682 6.0613,102.0326 -19.2236,32.8821 -58.4629,51.2188 -105.5085,51.2188 H 64.3663 c -15.2572,0 -24.1941,-17.6267 -30.1511,-38.5596 -8.8835,-31.2164 -9.3586,-63.8048 5.4145,-90.0009 23.3756,-41.45 79.9777,-62.9123 142.3587,-65.4033 z"
       fill="#141e24"
       opacity="1"
       id="path1640" />
    <path
       d="m 110.9167,425.3722 c 4.2768,10.0979 3.765,22.8279 0.8431,35.2141 -1.9262,8.1654 -4.8811,16.0198 -9.092,23.2351 -3.7476,6.4215 -8.5173,12.1714 -14.1431,17.1738 4.2955,-2.7892 9.0964,-4.3718 14.1431,-5.0511 8.0811,-1.0877 16.7883,0.2791 25.2556,3.0307 l 8.151,35.0479 c -10.6118,4.523 -21.3552,8.6119 -32.3271,12.1227 -17.5227,5.6069 -34.9103,10.309 -51.046,7.1924 -21.347,-4.1231 -38.4354,-19.9861 -44.9573,-41.3006 -4.8601,-15.8837 -2.9159,-33.6487 3.0952,-50.5546 3.6095,-10.1514 8.7092,-19.6732 15.4759,-27.8566 11.1687,-13.5069 26.5036,-22.7074 43.3325,-25.7932 10.4252,-1.9115 21.0342,-1.3352 29.1464,3.3963 5.4588,3.1838 9.5691,8.1138 12.1227,14.1431 z"
       fill="#141e24"
       opacity="1"
       id="path1642" />
    <path
       d="m 54.1717,421.2453 c -7.9475,8.8152 -14.6758,18.4775 -20.1416,28.8883 -7.4327,14.1572 -12.6497,29.1631 -12.3807,44.3643 0.2253,12.7352 4.2963,25.2234 10.2065,37.0371 1.4362,2.8707 2.9731,5.6924 4.7765,8.3588 -3.6211,-1.2826 -6.6763,-3.4318 -9.5529,-5.9705 -9.0759,-8.01 -15.3692,-20.3406 -16.7791,-33.2351 -0.7459,-6.8214 -0.2644,-13.7733 1.0317,-20.6345 2.485,-13.1547 7.5654,-25.5471 15.4759,-36.1104 7.1337,-9.526 16.4085,-17.2535 27.3637,-22.698 z"
       fill="#316e7d"
       opacity="1"
       id="path1644" />
    <path
       d="m 159.3095,519.8796 c 2.8524,2.3283 3.0242,7.8218 5.9784,10.1056 2.7108,2.0956 6.926,1.6384 10.1852,-1.0136 2.2012,-1.7911 3.5942,-4.5046 4.0915,-7.5154 0.2782,-1.6842 0.2655,-3.4171 -0.1936,-5.1069 1.5233,1.5066 2.6846,3.3262 3.5515,5.2446 1.2634,2.7958 1.7734,5.8634 3.6631,7.3777 1.5165,1.2153 3.7601,1.428 5.9784,1.0136 2.3279,-0.4348 4.467,-1.5114 5.8935,-3.3371 2.2787,-2.9168 2.5414,-7.371 1.1941,-11.9412 2.6408,2.587 5.1391,5.3766 7.1646,8.3588 1.2736,1.875 2.2931,3.8077 3.9318,4.8991 3.1473,2.0961 7.6403,1.3082 10.0752,-2.0045 2.0568,-2.7984 2.1509,-6.8762 1.0198,-11.2262 -2.3172,-8.9115 -9.4207,-17.522 -18.6091,-22.7153 -11.0467,-6.2436 -24.271,-7.8982 -37.9526,-7.4965 -6.9175,0.203 -13.7739,0.91 -20.2044,3.0306 -9.2066,3.0361 -17.2189,8.7352 -23.0425,16.4071 -4.8105,6.3371 -7.8872,13.3905 -5.9706,19.1057 2.1502,6.4116 9.1904,9.8532 16.7176,7.1647 10.5425,-9.8385 21.6203,-14.3571 26.5281,-10.3508 z"
       fill="#8bbcc7"
       opacity="1"
       id="path1646" />
    <path
       d="m 147.1107,499.1835 c 4.2763,1.783 7.221,6.0268 9.5529,10.747 1.6209,3.281 2.903,6.7303 3.6559,10.3568 -3.1888,1.3941 -6.2263,3.1282 -9.092,5.0511 -2.4135,1.6195 -4.6611,3.4545 -7.0716,5.0511 -5.1853,3.4347 -10.8404,5.8069 -16.1616,5.0972 -4.0104,-0.5348 -7.6173,-2.7992 -10.1022,-6.0613 -2.3365,-3.0673 -3.5467,-6.864 -3.0324,-10.5561 0.6612,-4.7463 4.151,-8.9734 8.3688,-12.5211 7.8284,-6.5847 17.015,-10.0279 23.8822,-7.1647 z"
       fill="#316e7d"
       opacity="1"
       id="path1648" />
    <path
       d="m 27.3468,411.9597 46.4277,-116.585 c 1.2067,-12.4642 2.8321,-24.8509 5.1587,-37.1422 3.1338,-16.5561 7.018,-32.8289 14.4441,-47.4594 8.3472,-16.445 20.6885,-30.542 36.1104,-40.2373 15.861,-9.9713 34.5175,-14.9897 53.6498,-16.5076 25.6199,-2.0327 51.0338,2.2117 71.1891,15.4759 16.2815,10.7148 28.4984,26.8884 36.1105,45.3959 9.3854,22.8195 11.2847,48.3667 7.222,74.2843 l 35.0787,113.4899 -22.7316,19.3297 -42.4294,-5.2561 c -8.6429,13.3156 -18.7738,19.9734 -31.3169,19.9734 h -74.7566 c -13.8544,0 -25.7213,-6.3074 -36.368,-18.9222 l -58.593,6.3074 z"
       fill="#141e24"
       opacity="1"
       id="path1650" />
    <path
       d="m 134.7974,173.3382 c -8.4788,12.7083 -14.8449,26.5357 -19.1943,40.9981 -4.9928,16.602 -7.0933,33.9987 -8.0817,51.5103 -0.6915,12.2506 -0.6867,24.5202 0,36.7932 L 50.3787,415.6965 34.2152,409.3892 79.2351,297.3836 c 0.7974,-13.0988 2.4439,-26.0683 5.0511,-38.8956 4.0526,-19.9385 9.6086,-39.4443 20.2045,-55.7153 7.749,-11.8992 17.8709,-22.0498 30.3067,-29.4345 z"
       fill="#316e7d"
       opacity="1"
       id="path1652" />
    <path
       d="m 213.5948,161.7747 c -19.2069,-0.6878 -38.0556,6.1529 -52.5316,21.0246 -27.614,28.3689 -35.2953,81.7096 -27.276,139.8139 l 36.368,-4.205 c 8.508,-16.8932 22.494,-27.3838 39.8388,-27.8082 16.8349,-0.412 30.9608,8.8329 39.9689,24.6545 l 46.1679,-15.6868 -2.7283,-19.0038 c 1.9686,-14.8944 1.2412,-29.7415 -2.0205,-44.1517 -4.0934,-18.0849 -11.5776,-35.0868 -23.6429,-48.3371 -14.2427,-15.6414 -33.68,-25.5676 -54.1443,-26.3004 z"
       fill="#316e7d"
       opacity="1"
       id="path1654" />
    <path
       d="m 225.4383,381.008 -1.0824,31.964 c -0.1039,3.0662 -2.8013,5.0562 -6.165,5.2561 -3.4551,0.2054 -6.2579,-1.4635 -6.165,-4.2049 l 1.0824,-31.964 c 0.1236,-3.652 2.7982,-6.1188 6.165,-6.3074 3.4514,-0.1933 6.2766,1.9599 6.165,5.2562 z"
       fill="#316e7d"
       opacity="1"
       id="path1656" />
    <path
       d="m 196.6682,381.008 -1.0824,31.964 c -0.1038,3.0662 -2.8012,5.0562 -6.165,5.2561 -3.4551,0.2054 -6.2578,-1.4635 -6.165,-4.2049 l 1.0824,-31.964 c 0.1237,-3.652 2.7983,-6.1188 6.165,-6.3074 3.4515,-0.1933 6.2767,1.9599 6.165,5.2562 z"
       fill="#316e7d"
       opacity="1"
       id="path1658" />
    <path
       d="m 169.9532,395.5339 -0.6943,12.843 c -0.1841,3.4056 -3.0377,5.606 -6.5531,5.6388 -3.2906,0.0308 -5.9283,-1.7869 -5.7769,-4.5876 l 0.6943,-12.843 c 0.1974,-3.6521 2.8482,-6.0962 6.165,-6.3074 3.4987,-0.2228 6.3432,1.96 6.165,5.2562 z"
       fill="#316e7d"
       opacity="1"
       id="path1660" />
    <path
       d="m 252.1533,393.4314 -0.6942,12.843 c -0.1841,3.4056 -3.0377,5.606 -6.5532,5.6389 -3.2906,0.0307 -5.9282,-1.7869 -5.7768,-4.5877 l 0.6942,-12.843 c 0.1974,-3.652 2.8483,-6.0962 6.165,-6.3074 3.4988,-0.2228 6.3432,1.9601 6.165,5.2562 z"
       fill="#316e7d"
       opacity="1"
       id="path1662" />
    <path
       d="m 193.462,274.414 c 4.0525,-2.2581 8.4911,-3.4227 13.0568,-3.7305 6.7519,-0.4552 13.7466,1.0368 20.4757,3.7118 13.0108,-17.4581 33.0433,-24.1294 52.5316,-21.2147 29.4723,4.4078 50.866,27.619 52.18,55.6065 1.3943,29.6991 -19.6575,55.6194 -50.5546,60.8719 -20.1712,3.429 -41.3149,-3.6739 -54.6815,-19.6028 -10.3415,-12.3241 -14.8571,-28.8294 -10.5044,-45.8166 -1.0502,-1.108 -2.4064,-1.7237 -3.851,-1.8465 -1.9243,-0.1637 -3.8714,0.5573 -5.5958,1.8652 3.1461,20.6581 -4.4253,39.5126 -18.6526,52.2276 -17.9027,15.9995 -43.109,20.3411 -65.2844,11.1916 -19.6044,-8.0887 -33.9793,-25.7188 -37.3054,-46.6318 -3.13,-19.68 4.0458,-39.8913 18.6527,-54.0927 14.4281,-14.0277 34.5753,-20.4848 54.0928,-16.7875 14.3369,2.716 27.2479,10.8925 35.4401,24.2485 z"
       fill="#e96c4c"
       opacity="0.2"
       id="path1664" />
    <path
       d="m 191.5967,280.0098 c 5.091,-3.4501 10.8637,-5.2963 16.7874,-5.5958 7.0447,-0.3561 14.0893,1.4863 20.6309,5.0324 12.9462,-18.2306 33.4745,-25.2739 53.1682,-21.2139 24.6607,5.084 42.5671,25.4263 44.3643,49.5229 2.1491,28.8162 -17.8088,53.7895 -47.4594,57.7767 -17.3754,2.3365 -35.515,-4.0377 -47.4594,-17.5394 -11.1486,-12.6019 -15.5687,-30.0466 -10.612,-47.794 -2.5917,-2.1566 -5.6922,-3.2893 -8.9021,-3.4014 -3.9119,-0.1367 -7.7678,1.2451 -11.1916,3.7305 4.1043,20.4364 -2.7103,39.5269 -16.7874,52.2275 -15.7934,14.2491 -38.0414,18.6464 -57.8233,11.1916 -18.4596,-6.9564 -32.0716,-23.3048 -35.4401,-42.9012 -3.1558,-18.3589 3.1987,-37.2999 16.7874,-50.3622 12.8703,-12.3717 30.8825,-17.9991 48.497,-14.9222 14.3692,2.5101 27.294,10.7964 35.4401,24.2485 z"
       fill="#e96c4c"
       opacity="0.2"
       id="path1666" />
    <path
       d="m 276.6275,262.9924 c 25.679,1.9351 45.7583,24.061 44.723,50.5564 -0.9617,24.6158 -20.3054,44.7329 -44.723,46.6675 -27.2501,2.159 -50.3975,-18.197 -52.5009,-44.723 -2.406,-30.3432 22.1813,-54.9585 52.5009,-52.5009 z"
       fill="#ffffff"
       opacity="1"
       id="path1668" />
    <path
       d="m 146.2372,260.2522 c 28.5702,-0.0565 51.4336,23.4105 50.3623,52.2276 -1.0026,26.967 -23.1614,48.497 -50.3623,48.497 -27.2008,0 -49.3597,-21.53 -50.3622,-48.497 -1.0714,-28.8171 21.7921,-52.2841 50.3622,-52.2276 z"
       fill="#ffffff"
       opacity="1"
       id="path1670" />
    <path
       d="m 209.842,285.5509 c 9.1696,-0.1969 18.1004,2.6693 25.9865,8.1929 l -3.7305,11.1916 c -5.9192,-5.1178 -12.966,-7.9663 -20.3907,-8.1929 -7.6081,-0.2322 -14.9827,2.3026 -21.373,7.1836 l -5.5958,-9.3264 c 7.4772,-5.7279 16.1149,-8.8558 25.1035,-9.0488 z"
       fill="#ffffff"
       opacity="1"
       id="path1672" />
    <path
       d="m 146.2372,271.4439 c 21.449,0.005 39.1475,15.6069 41.0359,35.4401 2.3739,24.9318 -18.7654,45.2091 -44.7664,42.9011 -22.351,-1.9839 -39.3854,-20.9863 -37.3054,-42.9011 1.8979,-19.9955 19.6613,-35.4707 41.0359,-35.4401 z"
       fill="url(#gradient70)"
       opacity="1"
       id="path1674"
       style="fill:url(#gradient70)" />
    <path
       d="m 276.6275,274.6593 c 20.3348,1.8585 36.0481,18.863 35.0006,38.8895 -0.9569,18.2972 -16.0862,33.1884 -35.0006,35.0006 -22.6349,2.1688 -41.6814,-13.999 -42.7785,-35.0006 -1.1979,-22.9309 18.6737,-41.277 42.7785,-38.8895 z"
       fill="url(#gradient71)"
       opacity="1"
       id="path1676"
       style="fill:url(#gradient71)" />
    <path
       d="m 164.4208,292.594 c 7.8375,-0.264 15.1858,3.0361 20.7895,9.3254 l -12.375,-2.8357 c -0.0521,9.9335 -5.0785,17.2181 -11.6077,16.8497 -5.8511,-0.3301 -9.9885,-6.7148 -9.3917,-15.1199 l -9.5268,4.0648 c 5.7666,-7.4779 13.4931,-11.9939 22.1117,-12.2843 z"
       fill="#141e24"
       opacity="0.1"
       id="path1678" />
    <path
       d="m 253.5295,291.4315 c 7.6376,-0.0682 14.6667,3.4313 19.771,9.8855 l -11.4401,-3.8926 c 0.5578,9.2896 -3.8213,16.3734 -10.0553,16.3893 -5.7223,0.0146 -10.0574,-5.9906 -9.8458,-14.178 l -10.6722,4.1526 c 5.7829,-7.6713 13.5771,-12.2795 22.2424,-12.3568 z"
       fill="#141e24"
       opacity="0.1"
       id="path1680" />
    <path
       d="m 114.8697,335.5904 13.1352,-34.6292 c 1.3883,-3.6599 3.9191,-5.9706 7.1647,-5.9706 h 47.7644 c -5.7043,-11.5758 -15.8117,-18.9355 -27.4645,-21.494 -15.9354,-3.4987 -32.0123,1.7789 -41.7939,14.3294 -5.6635,7.2667 -8.5563,16.4966 -7.9515,25.8486 0.5142,7.9502 3.5343,15.6561 9.1456,21.9158 z"
       fill="#141e24"
       opacity="0.5"
       id="path1682" />
    <path
       d="m 243.4326,335.7115 12.6938,-31.2504 c 1.549,-3.8135 4.1459,-6.2338 7.4689,-6.2241 l 44.5679,0.1299 c -4.687,-12.0799 -14.5371,-19.7828 -26.1412,-22.4067 -17.7881,-4.0222 -35.1287,3.4219 -43.5686,18.6723 -7.153,12.9249 -5.738,28.6392 4.9792,41.079 z"
       fill="#141e24"
       opacity="0.5"
       id="path1684" />
    <path
       d="m 199.8918,535.0329 61.6236,-148.5028 c 11.8071,-28.4531 37.5341,-44.4499 69.7055,-44.4499 h 165.9122 c 15.5379,0 21.3686,19.2354 13.1329,39.3988 l -58.593,143.4517 c -2.5864,6.3324 -7.7924,10.1022 -14.3164,10.1022 z"
       fill="#8bbcc7"
       opacity="0.2"
       id="path1686" />
    <path
       d="m 211.8412,535.0329 61.6236,-148.5028 c 10.0196,-24.1458 30.2609,-38.3885 55.5623,-38.3885 h 165.9122 c 15.2404,0 22.2852,16.301 15.3267,33.3374 l -58.593,143.4517 c -2.5864,6.3324 -7.7924,10.1022 -14.3164,10.1022 z"
       fill="#8bbcc7"
       opacity="0.4"
       id="path1688" />
    <path
       d="m 223.9638,535.0329 61.6237,-148.5028 c 7.6475,-18.4294 23.1063,-29.2965 42.4294,-29.2965 h 165.9122 c 13.4988,0 21.4327,11.7695 16.3369,24.2454 l -58.593,143.4517 c -2.5864,6.3324 -7.7924,10.1022 -14.3164,10.1022 z"
       fill="#ffffff"
       opacity="1"
       id="path1690" />
    <path
       d="m 289.3616,405.1718 c 10.1269,-23.6932 23.2101,-40.3585 41.4191,-40.409 l 165.1688,-0.4576 c 12.308,-0.0341 19.2137,11.308 14.3165,23.2351 L 447.6321,540.084 c -5.7312,13.9583 -20.959,20.1689 -40.5822,20.2045 l -252.048,0.4577 c -8.0283,0.0145 -13.4484,-5.8128 -14.1432,-13.1329 -0.8925,-9.4042 5.9351,-17.1738 16.1636,-17.1738 h 78.7974 z"
       fill="#141e24"
       opacity="1"
       id="path1692" />
    <path
       d="m 396.5033,454.7101 c 4.303,6.7824 11.825,8.2711 19.8985,5.319 -0.5384,2.2531 -1.5688,4.3051 -2.7629,6.2588 -6.4643,10.5763 -16.1084,17.9482 -27.1216,19.2667 -6.721,0.8046 -13.2528,-0.5656 -16.9673,-4.8445 -5.4042,-6.2252 -4.0639,-17.106 1.22,-27.2303 4.8448,-9.2831 13.375,-16.6515 22.0011,-19.4048 2.691,-0.8589 5.3416,-1.2537 8.096,-0.8802 -6.6353,6.4581 -8.9016,14.3631 -4.3638,21.5153 z"
       fill="#316e7d"
       opacity="1"
       id="path1694" />
    <path
       d="m 392.3211,457.4135 c 3.408,5.5728 9.4544,7.9754 16.4744,7.1396 -5.6686,9.0039 -13.3097,15.4133 -21.7918,16.8098 -5.9269,0.9758 -11.678,-0.4678 -14.6721,-4.3515 -4.0791,-5.2911 -2.2621,-14.0652 2.5293,-22.1472 4.2908,-7.2376 10.7724,-12.9484 18.9666,-16.4549 -4.2479,6.2619 -5.0959,13.1346 -1.5064,19.0042 z"
       fill="#8bbcc7"
       opacity="1"
       id="path1696" />
  </g>
  <text
     xml:space="preserve"
     style="font-style:normal;font-weight:normal;font-size:80px;line-height:1;font-family:sans-serif;fill:#ffffff;fill-opacity:1;stroke:none"
     x="691.28094"
     y="411.29623"
     id="text1751"><tspan
       sodipodi:role="line"
       id="tspan1749"
       x="691.28094"
       y="411.29623"
       style="font-style:normal;font-variant:normal;font-weight:800;font-stretch:normal;font-size:80px;font-family:'Open Sans';-inkscape-font-specification:'Open Sans Ultra-Bold';fill:#ffffff;fill-opacity:1">WEB </tspan><tspan
       sodipodi:role="line"
       x="691.28094"
       y="491.3989"
       style="font-style:normal;font-variant:normal;font-weight:800;font-stretch:normal;font-size:80px;font-family:'Open Sans';-inkscape-font-specification:'Open Sans Ultra-Bold';fill:#ffffff;fill-opacity:1"
       id="tspan1753">WRAPPER</tspan></text>
</svg>
